<!-- This will be replaced with the actual logo SVG data -->
<svg xmlns="http://www.w3.org/2000/svg" viewBox="0 0 400 200" width="400" height="200">
  <!-- Beautiful flower-like logo with solar panels as petals -->
  <!-- Top petals (cyan/blue gradient) -->
  <g transform="translate(200,100)">
    <!-- Solar panel petals around the flower -->
    <g opacity="0.9">
      <!-- Top panels -->
      <rect x="-80" y="-80" width="15" height="40" fill="#4ECDC4" transform="rotate(-15)" rx="2"/>
      <rect x="-60" y="-85" width="15" height="40" fill="#44A08D" transform="rotate(-5)" rx="2"/>
      <rect x="-40" y="-87" width="15" height="40" fill="#4ECDC4" transform="rotate(5)" rx="2"/>
      <rect x="-20" y="-85" width="15" height="40" fill="#44A08D" transform="rotate(15)" rx="2"/>
      <rect x="5" y="-80" width="15" height="40" fill="#4ECDC4" transform="rotate(25)" rx="2"/>
      
      <!-- Right panels -->
      <rect x="65" y="-40" width="15" height="40" fill="#44A08D" transform="rotate(75)" rx="2"/>
      <rect x="70" y="-20" width="15" height="40" fill="#4ECDC4" transform="rotate(85)" rx="2"/>
      <rect x="70" y="0" width="15" height="40" fill="#44A08D" transform="rotate(95)" rx="2"/>
      <rect x="65" y="20" width="15" height="40" fill="#4ECDC4" transform="rotate(105)" rx="2"/>
      
      <!-- Bottom panels -->
      <rect x="5" y="60" width="15" height="40" fill="#44A08D" transform="rotate(155)" rx="2"/>
      <rect x="-20" y="65" width="15" height="40" fill="#4ECDC4" transform="rotate(165)" rx="2"/>
      <rect x="-40" y="67" width="15" height="40" fill="#44A08D" transform="rotate(175)" rx="2"/>
      <rect x="-60" y="65" width="15" height="40" fill="#4ECDC4" transform="rotate(-175)" rx="2"/>
      <rect x="-80" y="60" width="15" height="40" fill="#44A08D" transform="rotate(-165)" rx="2"/>
      
      <!-- Left panels -->
      <rect x="-85" y="20" width="15" height="40" fill="#4ECDC4" transform="rotate(-105)" rx="2"/>
      <rect x="-90" y="0" width="15" height="40" fill="#44A08D" transform="rotate(-95)" rx="2"/>
      <rect x="-90" y="-20" width="15" height="40" fill="#4ECDC4" transform="rotate(-85)" rx="2"/>
      <rect x="-85" y="-40" width="15" height="40" fill="#44A08D" transform="rotate(-75)" rx="2"/>
    </g>
    
    <!-- Central flower petals -->
    <g opacity="0.8">
      <!-- Large colorful petals -->
      <ellipse cx="0" cy="-50" rx="15" ry="35" fill="#FF6B6B" transform="rotate(0)"/>
      <ellipse cx="0" cy="-50" rx="15" ry="35" fill="#4ECDC4" transform="rotate(45)"/>
      <ellipse cx="0" cy="-50" rx="15" ry="35" fill="#95E1D3" transform="rotate(90)"/>
      <ellipse cx="0" cy="-50" rx="15" ry="35" fill="#FFA726" transform="rotate(135)"/>
      <ellipse cx="0" cy="-50" rx="15" ry="35" fill="#AB47BC" transform="rotate(180)"/>
      <ellipse cx="0" cy="-50" rx="15" ry="35" fill="#66BB6A" transform="rotate(225)"/>
      <ellipse cx="0" cy="-50" rx="15" ry="35" fill="#42A5F5" transform="rotate(270)"/>
      <ellipse cx="0" cy="-50" rx="15" ry="35" fill="#FFCA28" transform="rotate(315)"/>
    </g>
    
    <!-- Center hub -->
    <circle cx="0" cy="0" r="25" fill="#2E3B4E"/>
    <circle cx="0" cy="0" r="15" fill="#34495E"/>
    
    <!-- Bottom solar panels (stem) -->
    <g>
      <rect x="-25" y="30" width="12" height="30" fill="#5D4E75" rx="2"/>
      <rect x="-10" y="35" width="12" height="30" fill="#8E7CC3" rx="2"/>
      <rect x="5" y="35" width="12" height="30" fill="#5D4E75" rx="2"/>
      <rect x="-25" y="50" width="12" height="30" fill="#8E7CC3" rx="2"/>
      <rect x="-10" y="55" width="12" height="30" fill="#5D4E75" rx="2"/>
      <rect x="5" y="55" width="12" height="30" fill="#8E7CC3" rx="2"/>
    </g>
  </g>
</svg>
